<svg width="25" height="24" viewBox="0 0 25 24" fill="none" xmlns="http://www.w3.org/2000/svg">
    <path d="M17.8 9L11.8 15M11.8 9L17.8 15M3.52005 12.96L7.84005 18.72C8.19205 19.1893 8.36805 19.424 8.5911 19.5932C8.78865 19.7432 9.01236 19.855 9.25082 19.9231C9.52005 20 9.81338 20 10.4 20H18C19.6802 20 20.5203 20 21.162 19.673C21.7265 19.3854 22.1854 18.9265 22.4731 18.362C22.8 17.7202 22.8 16.8802 22.8 15.2V8.8C22.8 7.11984 22.8 6.27976 22.4731 5.63803C22.1854 5.07354 21.7265 4.6146 21.162 4.32698C20.5203 4 19.6802 4 18 4H10.4C9.81338 4 9.52005 4 9.25082 4.07689C9.01236 4.14499 8.78865 4.25685 8.5911 4.40675C8.36805 4.576 8.19205 4.81067 7.84005 5.28L3.52005 11.04C3.26185 11.3843 3.13276 11.5564 3.08299 11.7454C3.03907 11.9123 3.03907 12.0877 3.08299 12.2546C3.13276 12.4436 3.26185 12.6157 3.52005 12.96Z" stroke="#434A51" stroke-width="2" stroke-linecap="round" stroke-linejoin="round"/>
</svg>
